<svg xmlns="http://www.w3.org/2000/svg" xmlns:xlink="http://www.w3.org/1999/xlink" viewBox="0 0 395.56 217.8"><defs><style>.cls-1{fill:#3b79bd;}.cls-2{fill:#48b0e1;}.cls-3{fill:url(#Degradado_sin_nombre_5);}.cls-4{fill:#fefeff;}.cls-5{fill:#f3f5f8;}</style><linearGradient id="Degradado_sin_nombre_5" x1="90.8" y1="40.14" x2="234.16" y2="40.14" gradientUnits="userSpaceOnUse"><stop offset="0" stop-color="#38bff0"/><stop offset="1" stop-color="#3b79bd"/></linearGradient></defs><g id="Capa_2" data-name="Capa 2"><g id="Capa_1-2" data-name="Capa 1"><path d="M277.54,213.88a1192.74,1192.74,0,0,1-142.5.05c1.54-4.34,3.52-8.39,3.54-13,0-2.84,2.4-1.68,3.77-1.68,17-.07,34-.12,51-.76,4.64-.17,5.49-1.72,5.31-5.79-.25-5.51-.49-11-2-16.3-1.78-6.14-5.44-10-12.07-11-12-1.88-23.92-4.22-35.91-6.11-2.94-.47-4.13-1.11-4.25-4.49-.63-17.91-14.73-31-32.73-30.54-2.9.08-5.08-.09-6.4-3.12a6,6,0,0,0-3-3.16c-6.58-2.06-10.43-7.35-15.24-11.67-6-5.41-13.36-5.66-20.42-1.6-2.23,1.28-3.6,1-5.74-.15-7.21-3.93-11-10.43-14.06-17.57-.91-2.14-1.44-4.46-2.48-6.52-2.08-4.12-6.19-4.69-9.91-4-3.54.66-1.52,4.17-1.42,6.26a111.87,111.87,0,0,0,3.94,23.38c-5.36-1-10.18-2.37-15.15-1.25-2.13.48-2.14-.82-2-2.28.66-7,.95-14,2.09-20.87C22.86,75.36,33.09,67.65,40,67.27a42.76,42.76,0,0,1,6,.11c8.92.75,8.92.78,11.52-8.07.05-.16.06-.32.11-.48C60,50.93,60,50.93,51.92,51A12.47,12.47,0,0,1,39.5,40.89c-.54-2.67,1-4.08,2.84-5.3,6.16-4.07,13-5,20.11-3.83,2.47.39,4,.21,5-2.38,1.06-2.79,3.49-3.87,6.35-4.08,9.81-.7,19.63-1.08,29.41.44,2,.31,3.4.4,4.66-1.57,8.58-13.51,21.86-18.75,37-20.84,12.88-1.78,80.95-3.79,87.6-3.24,14.44,1.2,28.87,2,43.13,4.86,11.89,2.41,21.29,8.34,28.13,18.24,1.66,2.41,3.23,2.94,6.13,2.47,9.59-1.53,19.26-1.07,28.91-.34,2.9.22,5.23,1.52,6.21,4.27.91,2.55,2.4,2.52,4.64,2.15,5.69-.93,11.39-.62,16.63,1.87,2.94,1.4,7.1,2.32,6.57,7-.58,5-5.53,10-10.12,10.38a66.94,66.94,0,0,1-7.49-.12c-2.18-.1-3.26.52-2.19,2.86a2.54,2.54,0,0,1,.17.46c1.32,4.3,1.61,9.39,4.2,12.67,3.13,4,8.27,0,12.56.23C380.55,67.5,390,75.22,391,85.83c2.8,29.69,5.3,59.4,4.39,90.55a24.2,24.2,0,0,0-14.2-7.38c7.54-13.45-2-32.22-17.93-35.78a25.73,25.73,0,0,0-22.14,4.87c-1.69,1.29-3.14,2.37-5.24.84a3.39,3.39,0,0,0-2.34-.7c-6.73,1.41-13.23-.81-19.83-1-7.09-.24-12.93,4.91-14.18,12.33-.66,3.91-2.4,5-6,5.4-21.31,2.62-42.46,6.26-63.56,10.19-10.08,1.88-13.56,5.28-15.33,15.41-3,17.32-3,17.47,14.07,18.21,10.31.45,20.65.44,31,.41,2.63,0,4.26.66,5.63,3a24.64,24.64,0,0,0,9.42,8.75C275.84,211.48,277.26,211.75,277.54,213.88ZM153.82,70c24.14,0,43.12-.07,62.11.08,2.75,0,3.79-1,4.4-3.39,4.44-17.56,8.85-35.14,13.51-52.64.84-3.14.08-3.7-2.81-3.7-27.8,0-55.62-1.11-83.29,2.89-16.21,2.34-31.21,6.5-40.95,21.43A198.69,198.69,0,0,0,92,61.19c-2.17,4.79-1.48,5.74,3.63,6.17C116.68,69.12,137.83,69.52,153.82,70Zm133.94-.11v-.63c9.79-.64,19.57-1.45,29.36-1.86,4.57-.18,5-2.07,3.42-5.66-5-11.08-10.65-21.76-18.43-31.22-6.13-7.46-13.63-12.42-23.19-14.4-3-.62-3.89-.21-4.63,2.83q-5.82,23.69-12.21,47.22c-1,3.63.3,3.83,3.24,3.77C272.8,69.78,280.28,69.88,287.76,69.88Zm47.83,51.2c-.12,9,.15,9.24,8.41,7.58,4.71-.94,9.43-1.88,14.19-2.6a16,16,0,0,0,12.4-8.89c6.31-11.87,8.45-24.69,9-37.91,0-1.24.41-2.6-1.62-3-3.49-.72-9.23,1.44-10.06,4.72-3.67,14.37-13.39,23.18-26,29.6C337.33,112.84,334.49,116.33,335.59,121.08Zm-163.66-2.86c4,4.51,7.9,6.61,13.67,6.42,13.93-.45,27.89-.38,41.83,0,5.63.17,9.15-2.33,12.91-6.46C217.39,117.24,195,117.2,171.93,118.22Zm77.4-48.16c2.8.56,3.68-.93,4.31-3.43,4.13-16.41,8.47-32.78,12.6-49.19.34-1.35,2.1-3.78-1.31-4.15-2.21-.25-4.4-1-5.27,2.46-4.23,17.08-8.64,34.11-13.11,51.12C245.8,69.73,246.68,70.53,249.33,70.06Zm-22.12.06c2.57.54,2.7-1.69,3.12-3.35q6.73-26.05,13.32-52.15c.28-1.12,2.07-2.89-.63-3.5-2.09-.47-3.89-.45-4.42,2.41C238,17,237,20.32,236.09,23.69q-5.46,21.24-10.94,42.48C224.69,68,223.24,70.28,227.21,70.12Zm-121-42.55a207.85,207.85,0,0,0-31.2-.4c-2.16.16-3.59.83-3.39,3.19s1.87,2.2,3.66,2a141.22,141.22,0,0,1,22.34-.2C101.29,32.45,104.06,31.53,106.22,27.57Zm199.14.15c2.76,2.41,4,4.69,7.48,4.51a161.54,161.54,0,0,1,24.79.23c1.82.19,2.92-.34,3-2.28A2.5,2.5,0,0,0,338,27.24,189.31,189.31,0,0,0,305.36,27.72ZM118.28,104.77c5.06-5.26,9.86-4.34,15.11-.29-5-5.06-4.83-9.82-.41-15.14-5.1,4.81-9.85,4.88-15.11.36C122.43,94.76,123,99.51,118.28,104.77ZM383.36,134.3c.94-3.27,3.26-3.85,6.09-4.19-3.1-1-4.56-2.87-4.34-6.33-.66,3.61-3.33,4.24-7.43,4.93C382,129.39,383.23,131.24,383.36,134.3ZM292,137.19c-4.31,1-8.35.71-7.57,6.05a7.35,7.35,0,0,1,6,.84C289.11,141.48,289.81,139.49,292,137.19ZM76.18,77.34c-.43.53-2.82-2.53-1.75,1.13.73,2.46.22,2.52,1.13,2.61,2.18.21,2.94-.49,2.89-2.89C78.39,75.19,76.76,78,76.18,77.34Z"/><path class="cls-1" d="M87.27,160.23c2.6-9.62.94-17.47-5.06-24.09-8.42-9.31-21.27-10.73-31.56-3.57-2,1.41-3.09,2.53-4.75-.71C40.34,121,30.69,116.34,20.14,119c-11.09,2.8-17.46,11.36-17.5,23.54,0,1-.08,1.92-.14,3.15-6-9.69-.65-25.08,10.19-31.43C25.36,106.84,40.81,111,48.44,124c1.29,2.21,1.93,3.85,5,2,9.83-5.92,19.76-5.53,28.93,1.26,8.88,6.58,11.7,15.75,9.48,26.52-.05.26.17.58.36,1.18,7.37-2,13.83-.44,18.38,6,3.25,4.59,3.94,9.66.65,16.2-1.08-6.77-1.67-12.55-6.88-16.1S93.89,157.17,87.27,160.23Z"/><path class="cls-1" d="M342.38,168.32c4.7-5,10.26-7,16.63-4.13,3.52,1.57,6.21,4.2,6.42,8.81-11-8.12-16.63-7.94-23.67.77-2.41-3.55-4-7.51-7.69-10.13-11.19-8-25.75-4-30.94,8.79-.7,1.72-.55,3.82-3.81,2.12-9.18-4.79-17.54-3.54-23.69,2.88s-6.9,16-2.06,24.69c-4.7-1.61-8.44-9.28-7.82-16.09,1.43-15.73,16.92-24.84,31.39-18.47,1.7.75,3.18,2.52,4.59-.75,3.74-8.67,10.71-13.17,20-13,9,.17,15.79,4.6,19.6,13.05A11.58,11.58,0,0,0,342.38,168.32Z"/><path class="cls-2" d="M97.62,139.2c.21-1.13.38-2.27.64-3.39,1.79-7.83-.33-10.87-8.24-11.51-1.24-.1-2.34,0-2.66-1.51-2.09-9.77-8.85-13-18.57-12.54,7.54-4.57,16.46-1,19.29,7.55.9,2.72,1.83,3.54,4.71,3.4,5.1-.23,8.72,2.33,8.72,6.83,0,5.23,2.29,3.88,5.38,3.08,9.57-2.47,17.8.28,24.5,7.32,6.44,6.77,8.53,14.85,6.1,24-.29,1.06-.42,2.32-2.06,2.66-1.72-1.51.14-3,.25-4.41,1.4-17.8-16.81-30.82-33.16-23.63-1.64.73-3,2.18-5,2.13Z"/><path class="cls-2" d="M303,217.8c-1.53-13.28,7.63-21.58,20.31-18.31,3.25.83,3.51-.73,4.49-2.7,7.11-14.34,25.69-18,35.82-7.15a29.24,29.24,0,0,1,1.88,2.93c-8.06-5.2-15.3-7.11-23-3.39S330.65,199,330,208.27c-5.32-4.48-10.78-6.8-17.19-4.31S304,211.56,303,217.8Z"/><path class="cls-2" d="M378.2,161.73c-1.88-11.5-7.73-18.52-16.57-19.63-10.79-1.35-18.1,2.88-22.55,13.09-1.33-.71-1.26-2.13-1.71-3.28-2-5.12-6-8.13-11-3.41-1.07,1-1.63.95-2.83.07-9.19-6.72-14.22-5.57-20.39,4.5,1.56-10,10.85-14.2,19-8.46,1.77,1.26,2.67,1.6,4.53.06,2.85-2.37,6.48-2.58,9,.25s3.85,1.84,6-.42c11.85-12.23,31.37-7.42,36.2,8.72C378.76,156.07,378.2,158.82,378.2,161.73Z"/><path class="cls-2" d="M102.39,188.59c.81-10.71-.38-13.5-8.09-19,5.09-.63,10.38,4,11,10.53.33,3.5,1,4,4.33,3a17.35,17.35,0,0,1,18.76,6c4.7,6.25,5.64,12.9,1.58,20.48C132.31,190.06,115.64,181.73,102.39,188.59Z"/><path class="cls-2" d="M365.87,181.92c4.39-6,10-9.12,17.58-7.11,4.51,1.19,8,3.58,9,8.59-4.22-3.4-8.58-6-14.21-5.31s-9.62,4-12.51,8.85c-5.2-8.51-8.31-10-17.22-8.47C353.91,174,358.57,174.87,365.87,181.92Z"/><path class="cls-2" d="M280.86,194.36c4.71-2.35,5.63-6,4.92-10.74,2.45,3.83,5.46,5.87,10.52,4.75-4.57,2.64-5.95,6.16-4.23,11.17C289.23,195.72,286.41,192.36,280.86,194.36Z"/><path class="cls-2" d="M119.44,145.3c0,3.89-.55,7,4.07,7.65-3.34.9-6.29,1.06-7.12,4.84-.79-3-.27-6.08-4.22-7C115.86,150.87,117.66,148.76,119.44,145.3Z"/><path class="cls-2" d="M360.74,159.54c-2.12-2.8-3.74-4-7.11-3.09,2.19-2.35,4.15-3.81,2.11-7.45,2.85,2.58,4.75,3.49,6.94,3.78C361,154.22,360,155.92,360.74,159.54Z"/><path class="cls-2" d="M295.84,180.31c-.91.57.05,2.86-1.94,2.14-.78-.28-2.49-.07-2.24-1.1s.35-2.88,2.14-2.55C294.44,178.92,295.9,178.82,295.84,180.31Z"/><path class="cls-3" d="M153.82,70c-16-.47-37.14-.87-58.23-2.63-5.11-.43-5.8-1.38-3.63-6.17a198.69,198.69,0,0,1,14.83-26.53c9.74-14.93,24.74-19.09,41-21.43,27.67-4,55.49-2.88,83.29-2.89,2.89,0,3.65.56,2.81,3.7-4.66,17.5-9.07,35.08-13.51,52.64-.61,2.42-1.65,3.41-4.4,3.39C196.94,69.92,178,70,153.82,70Z"/><path class="cls-4" d="M287.76,69.88c-7.48,0-15-.1-22.43.05-2.94.06-4.22-.14-3.24-3.77q6.41-23.52,12.21-47.22c.74-3,1.65-3.45,4.63-2.83,9.56,2,17.06,6.94,23.19,14.4,7.78,9.46,13.41,20.14,18.43,31.22,1.62,3.59,1.15,5.48-3.42,5.66-9.79.41-19.57,1.22-29.36,1.86Z"/><path class="cls-4" d="M335.59,121.08c-1.1-4.75,1.74-8.24,6.24-10.51,12.65-6.42,22.37-15.23,26-29.6.83-3.28,6.57-5.44,10.06-4.72,2,.41,1.66,1.77,1.62,3-.51,13.22-2.65,26-9,37.91a16,16,0,0,1-12.4,8.89c-4.76.72-9.48,1.66-14.19,2.6C335.74,130.32,335.47,130.13,335.59,121.08Z"/><path class="cls-5" d="M171.93,118.22c23.11-1,45.46-1,68.41,0-3.76,4.13-7.28,6.63-12.91,6.46-13.94-.42-27.9-.49-41.83,0C179.83,124.83,175.9,122.73,171.93,118.22Z"/><path class="cls-5" d="M249.33,70.06c-2.65.47-3.53-.33-2.78-3.19,4.47-17,8.88-34,13.11-51.12.87-3.51,3.06-2.71,5.27-2.46,3.41.37,1.65,2.8,1.31,4.15-4.13,16.41-8.47,32.78-12.6,49.19C253,69.13,252.13,70.62,249.33,70.06Z"/><path class="cls-5" d="M227.21,70.12c-4,.16-2.52-2.14-2.06-4q5.47-21.24,10.94-42.48C237,20.32,238,17,238.6,13.53c.53-2.86,2.33-2.88,4.42-2.41,2.7.61.91,2.38.63,3.5q-6.57,26.1-13.32,52.15C229.91,68.43,229.78,70.66,227.21,70.12Z"/><path class="cls-5" d="M106.22,27.57c-2.16,4-4.93,4.88-8.59,4.63a141.22,141.22,0,0,0-22.34.2c-1.79.16-3.47.33-3.66-2s1.23-3,3.39-3.19A207.85,207.85,0,0,1,106.22,27.57Z"/><path class="cls-5" d="M305.36,27.72A189.31,189.31,0,0,1,338,27.24a2.5,2.5,0,0,1,2.58,2.94c-.07,1.94-1.17,2.47-3,2.28a161.54,161.54,0,0,0-24.79-.23C309.4,32.41,308.12,30.13,305.36,27.72Z"/><path class="cls-5" d="M118.28,104.77c4.67-5.26,4.15-10-.41-15.07,5.26,4.52,10,4.45,15.11-.36-4.42,5.32-4.6,10.08.41,15.14C128.14,100.43,123.34,99.51,118.28,104.77Z"/><path class="cls-5" d="M383.36,134.3c-.13-3.06-1.33-4.91-5.68-5.59,4.1-.69,6.77-1.32,7.43-4.93-.22,3.46,1.24,5.31,4.34,6.33C386.62,130.45,384.3,131,383.36,134.3Z"/><path class="cls-5" d="M292,137.19c-2.22,2.3-2.92,4.29-1.55,6.89a7.35,7.35,0,0,0-6-.84C283.68,137.9,287.72,138.2,292,137.19Z"/></g></g></svg>