<svg xmlns="http://www.w3.org/2000/svg" xmlns:xlink="http://www.w3.org/1999/xlink" viewBox="0 0 887.99 217.75"><defs><style>.cls-1,.cls-6{fill:#fefeff;}.cls-2{fill:#3b79bd;}.cls-3{fill:#48b0e1;}.cls-4{fill:url(#Degradado_sin_nombre_5);}.cls-5{fill:url(#Degradado_sin_nombre_5-2);}.cls-6{font-size:85.3px;font-family:FugazOne-Regular, Fugaz One;}.cls-7{fill:url(#Degradado_sin_nombre_5-3);}.cls-8{fill:url(#Degradado_sin_nombre_5-4);}.cls-9{fill:url(#Degradado_sin_nombre_5-5);}.cls-10{fill:url(#Degradado_sin_nombre_5-6);}.cls-11{fill:url(#Degradado_sin_nombre_5-7);}.cls-12{fill:url(#Degradado_sin_nombre_5-8);}.cls-13{fill:url(#Degradado_sin_nombre_5-9);}</style><linearGradient id="Degradado_sin_nombre_5" x1="90.8" y1="40.09" x2="234.16" y2="40.09" gradientUnits="userSpaceOnUse"><stop offset="0" stop-color="#38bff0"/><stop offset="1" stop-color="#3b79bd"/></linearGradient><linearGradient id="Degradado_sin_nombre_5-2" x1="261.77" y1="42.86" x2="321.4" y2="42.86" xlink:href="#Degradado_sin_nombre_5"/><linearGradient id="Degradado_sin_nombre_5-3" x1="437.92" y1="144.28" x2="505.1" y2="144.28" xlink:href="#Degradado_sin_nombre_5"/><linearGradient id="Degradado_sin_nombre_5-4" x1="507.41" y1="143.9" x2="560.8" y2="143.9" xlink:href="#Degradado_sin_nombre_5"/><linearGradient id="Degradado_sin_nombre_5-5" x1="566.54" y1="143.9" x2="600.41" y2="143.9" xlink:href="#Degradado_sin_nombre_5"/><linearGradient id="Degradado_sin_nombre_5-6" x1="602.06" y1="143.9" x2="677.29" y2="143.9" xlink:href="#Degradado_sin_nombre_5"/><linearGradient id="Degradado_sin_nombre_5-7" x1="678.95" y1="143.9" x2="748.33" y2="143.9" xlink:href="#Degradado_sin_nombre_5"/><linearGradient id="Degradado_sin_nombre_5-8" x1="747.01" y1="143.9" x2="814.85" y2="143.9" xlink:href="#Degradado_sin_nombre_5"/><linearGradient id="Degradado_sin_nombre_5-9" x1="820.04" y1="144.28" x2="887.99" y2="144.28" xlink:href="#Degradado_sin_nombre_5"/></defs><g id="Capa_2" data-name="Capa 2"><g id="Capa_1-2" data-name="Capa 1"><path class="cls-1" d="M277.54,213.84a1192.74,1192.74,0,0,1-142.5,0c1.54-4.34,3.52-8.39,3.54-13,0-2.84,2.4-1.68,3.77-1.69,17-.07,34-.11,51-.75,4.64-.18,5.49-1.72,5.31-5.79-.25-5.51-.49-11-2-16.3-1.78-6.14-5.44-10-12.07-11-12-1.88-23.92-4.22-35.91-6.12-2.94-.46-4.13-1.1-4.25-4.48-.63-17.92-14.73-31-32.73-30.54-2.9.07-5.08-.09-6.4-3.12a6,6,0,0,0-3-3.17c-6.58-2-10.43-7.34-15.24-11.66-6-5.41-13.36-5.67-20.42-1.6-2.23,1.27-3.6,1-5.74-.16-7.21-3.93-11-10.43-14.06-17.57-.91-2.13-1.44-4.45-2.48-6.51-2.08-4.12-6.19-4.69-9.91-4-3.54.65-1.52,4.17-1.42,6.26a111.67,111.67,0,0,0,3.94,23.37c-5.36-.94-10.18-2.36-15.15-1.25-2.13.48-2.14-.81-2-2.27.66-7,.95-14,2.09-20.87C22.86,75.32,33.09,67.61,40,67.23a44.34,44.34,0,0,1,6,.1c8.92.76,8.92.78,11.52-8.06.05-.16.06-.33.11-.49C60,50.89,60,50.89,51.92,51A12.48,12.48,0,0,1,39.5,40.85c-.54-2.67,1-4.08,2.84-5.3,6.16-4.07,13-5,20.11-3.83,2.47.39,4,.21,5-2.38,1.06-2.79,3.49-3.87,6.35-4.08,9.81-.7,19.63-1.09,29.41.44,2,.31,3.4.4,4.66-1.57,8.58-13.52,21.86-18.76,37-20.84,12.88-1.78,26-4.48,38.74-2.62,10.13,1.48,20.15,1.46,30.19,2.41,6.68.64,12-3.58,18.67-3,14.44,1.2,28.87,2,43.13,4.85,11.89,2.41,21.29,8.34,28.13,18.25,1.66,2.4,3.23,2.93,6.13,2.47,9.59-1.53,19.26-1.08,28.91-.35,2.9.22,5.23,1.53,6.21,4.28.91,2.54,2.4,2.52,4.64,2.15,5.69-.94,11.39-.62,16.63,1.87,2.94,1.39,7.1,2.32,6.57,7-.58,5-5.53,10.05-10.12,10.37a62.48,62.48,0,0,1-7.49-.12c-2.18-.09-3.26.52-2.19,2.86a2.64,2.64,0,0,1,.17.47c1.32,4.29,1.61,9.39,4.2,12.67,3.13,4,8.27,0,12.56.23,10.63.43,20.06,8.15,21.06,18.76,2.8,29.69,5.3,59.4,4.39,90.55a24.2,24.2,0,0,0-14.2-7.38c7.54-13.45-2-32.22-17.93-35.78a25.7,25.7,0,0,0-22.14,4.87c-1.69,1.29-3.14,2.37-5.24.83a3.39,3.39,0,0,0-2.34-.7c-6.73,1.42-13.23-.8-19.83-1-7.09-.24-12.93,4.91-14.18,12.32-.66,3.91-2.4,5-6,5.41-21.31,2.62-42.46,6.26-63.56,10.19-10.08,1.88-13.56,5.27-15.33,15.4-3,17.33-3,17.48,14.07,18.22,10.31.44,20.65.44,31,.41,2.63,0,4.26.65,5.63,3a24.54,24.54,0,0,0,9.42,8.74C275.84,211.44,277.26,211.71,277.54,213.84ZM153.82,70c24.14,0,43.12-.07,62.11.08,2.75,0,3.79-1,4.4-3.39,4.44-17.57,8.85-35.14,13.51-52.65.84-3.13.08-3.69-2.81-3.69-27.8,0-55.62-1.12-83.29,2.88-16.21,2.35-31.21,6.51-40.95,21.44A199.2,199.2,0,0,0,92,61.14c-2.17,4.8-1.48,5.74,3.63,6.17C116.68,69.08,137.83,69.47,153.82,70Zm133.94-.11V69.2c9.79-.64,19.57-1.44,29.36-1.85,4.57-.19,5-2.08,3.42-5.67-5-11.07-10.65-21.76-18.43-31.22C296,23,288.49,18.05,278.93,16.07c-3-.62-3.89-.21-4.63,2.82q-5.82,23.69-12.21,47.23c-1,3.63.3,3.83,3.24,3.77C272.8,69.73,280.28,69.84,287.76,69.84ZM335.59,121c-.12,9,.15,9.24,8.41,7.58,4.71-.94,9.43-1.89,14.19-2.6a16,16,0,0,0,12.4-8.9c6.31-11.86,8.45-24.68,9-37.9,0-1.24.41-2.6-1.62-3-3.49-.71-9.23,1.45-10.06,4.73-3.67,14.37-13.39,23.18-26,29.59C337.33,112.8,334.49,116.29,335.59,121Zm-163.66-2.87c4,4.52,7.9,6.62,13.67,6.43,13.93-.45,27.89-.39,41.83,0,5.63.17,9.15-2.33,12.91-6.46C217.39,117.2,195,117.16,171.93,118.17ZM249.33,70c2.8.57,3.68-.92,4.31-3.42,4.13-16.41,8.47-32.78,12.6-49.19.34-1.36,2.1-3.78-1.31-4.16-2.21-.24-4.4-1-5.27,2.47-4.23,17.07-8.64,34.11-13.11,51.12C245.8,69.69,246.68,70.49,249.33,70Zm-22.12.07c2.57.54,2.7-1.69,3.12-3.35q6.73-26.06,13.32-52.16c.28-1.12,2.07-2.88-.63-3.49-2.09-.47-3.89-.46-4.42,2.41-.64,3.43-1.64,6.78-2.51,10.16q-5.46,21.24-10.94,42.47C224.69,67.93,223.24,70.24,227.21,70.08Zm-121-42.56a209.18,209.18,0,0,0-31.2-.4c-2.16.16-3.59.84-3.39,3.2s1.87,2.2,3.66,2a142.42,142.42,0,0,1,22.34-.21C101.29,32.4,104.06,31.49,106.22,27.52Zm199.14.16c2.76,2.41,4,4.69,7.48,4.51a160.29,160.29,0,0,1,24.79.23c1.82.18,2.92-.34,3-2.29A2.49,2.49,0,0,0,338,27.2,187.33,187.33,0,0,0,305.36,27.68ZM118.28,104.73c5.06-5.26,9.86-4.34,15.11-.29-5-5.06-4.83-9.83-.41-15.14-5.1,4.81-9.85,4.88-15.11.36C122.43,94.72,123,99.47,118.28,104.73Zm265.08,29.52c.94-3.26,3.26-3.84,6.09-4.18-3.1-1-4.56-2.87-4.34-6.33-.66,3.61-3.33,4.24-7.43,4.93C382,129.34,383.23,131.2,383.36,134.25ZM292,137.14c-4.31,1-8.35.72-7.57,6.06a7.34,7.34,0,0,1,6,.83C289.11,141.44,289.81,139.44,292,137.14Z"/><path class="cls-2" d="M78.45,78.15c0,2.4-.71,3.09-2.9,2.89-.9-.09-.4-.15-1.12-2.61-1.08-3.66,1.32-.6,1.75-1.13C76.76,78,78.38,75.15,78.45,78.15Z"/><path class="cls-2" d="M87.27,160.19c2.6-9.63.94-17.47-5.06-24.09-8.42-9.31-21.27-10.73-31.56-3.57-2,1.4-3.09,2.53-4.75-.71C40.34,120.92,30.69,116.3,20.14,119c-11.09,2.8-17.46,11.36-17.5,23.54,0,1-.08,1.91-.14,3.15-6-9.69-.65-25.08,10.19-31.43,12.67-7.42,28.12-3.29,35.75,9.74,1.29,2.2,1.93,3.84,5,2,9.83-5.92,19.76-5.53,28.93,1.26,8.88,6.58,11.7,15.75,9.48,26.51-.05.27.17.59.36,1.18,7.37-2,13.83-.43,18.38,6,3.25,4.59,3.94,9.67.65,16.2-1.08-6.76-1.67-12.54-6.88-16.09S93.89,157.12,87.27,160.19Z"/><path class="cls-2" d="M342.38,168.27c4.7-5,10.26-7,16.63-4.12,3.52,1.56,6.21,4.19,6.42,8.81-11-8.12-16.63-7.94-23.67.77-2.41-3.55-4-7.51-7.69-10.13-11.19-8-25.75-4-30.94,8.79-.7,1.72-.55,3.82-3.81,2.12-9.18-4.79-17.54-3.55-23.69,2.87s-6.9,16-2.06,24.69c-4.7-1.6-8.44-9.28-7.82-16.08,1.43-15.73,16.92-24.85,31.39-18.47,1.7.75,3.18,2.52,4.59-.75,3.74-8.67,10.71-13.17,20-13,9,.16,15.79,4.59,19.6,13A10.29,10.29,0,0,0,342.38,168.27Z"/><path class="cls-3" d="M97.62,139.16c.21-1.13.38-2.27.64-3.39,1.79-7.84-.33-10.87-8.24-11.52-1.24-.1-2.34,0-2.66-1.5-2.09-9.78-8.85-13-18.57-12.55,7.54-4.57,16.46-1,19.29,7.55.9,2.73,1.83,3.54,4.71,3.41,5.1-.23,8.72,2.33,8.72,6.82,0,5.24,2.29,3.88,5.38,3.09,9.57-2.48,17.8.27,24.5,7.32,6.44,6.77,8.53,14.84,6.1,24-.29,1.06-.42,2.32-2.06,2.66-1.72-1.52.14-3,.25-4.41,1.4-17.8-16.81-30.82-33.16-23.63-1.64.72-3,2.18-5,2.13Z"/><path class="cls-3" d="M303,217.75c-1.53-13.27,7.63-21.57,20.31-18.31,3.25.84,3.51-.72,4.49-2.7,7.11-14.34,25.69-18,35.82-7.14a29.24,29.24,0,0,1,1.88,2.93c-8.06-5.2-15.3-7.11-23-3.4S330.65,199,330,208.23c-5.32-4.49-10.78-6.8-17.19-4.31S304,211.52,303,217.75Z"/><path class="cls-3" d="M378.2,161.68c-1.88-11.49-7.73-18.52-16.57-19.63-10.79-1.35-18.1,2.89-22.55,13.1-1.33-.72-1.26-2.13-1.71-3.28-2-5.12-6-8.13-11-3.42-1.07,1-1.63,1-2.83.08-9.19-6.73-14.22-5.57-20.39,4.49,1.56-10,10.85-14.19,19-8.45,1.77,1.25,2.67,1.6,4.53.05,2.85-2.36,6.48-2.57,9,.25s3.85,1.85,6-.41c11.85-12.23,31.37-7.43,36.2,8.72C378.76,156,378.2,158.78,378.2,161.68Z"/><path class="cls-3" d="M102.39,188.55c.81-10.71-.38-13.51-8.09-19,5.09-.63,10.38,4,11,10.52.33,3.51,1,4,4.33,3A17.35,17.35,0,0,1,128.37,189c4.7,6.25,5.64,12.9,1.58,20.47C132.31,190,115.64,181.68,102.39,188.55Z"/><path class="cls-3" d="M365.87,181.88c4.39-6,10-9.12,17.58-7.12,4.51,1.19,8,3.58,9,8.6-4.22-3.4-8.58-6-14.21-5.32s-9.62,4-12.51,8.86c-5.2-8.52-8.31-10-17.22-8.47C353.91,173.92,358.57,174.83,365.87,181.88Z"/><path class="cls-3" d="M280.86,194.32c4.71-2.36,5.63-6,4.92-10.74,2.45,3.82,5.46,5.87,10.52,4.75-4.57,2.64-5.95,6.16-4.23,11.16C289.23,195.67,286.41,192.32,280.86,194.32Z"/><path class="cls-3" d="M119.44,145.26c0,3.89-.55,7,4.07,7.65-3.34.89-6.29,1.06-7.12,4.84-.79-3-.27-6.08-4.22-7C115.86,150.82,117.66,148.72,119.44,145.26Z"/><path class="cls-3" d="M360.74,159.5c-2.12-2.81-3.74-4-7.11-3.1,2.19-2.34,4.15-3.8,2.11-7.44,2.85,2.57,4.75,3.48,6.94,3.78C361,154.18,360,155.88,360.74,159.5Z"/><path class="cls-3" d="M295.84,180.27c-.91.57.05,2.85-1.94,2.14-.78-.28-2.49-.07-2.24-1.1s.35-2.88,2.14-2.55C294.44,178.88,295.9,178.78,295.84,180.27Z"/><path class="cls-4" d="M153.82,70c-16-.48-37.14-.87-58.23-2.64-5.11-.43-5.8-1.37-3.63-6.17a199.2,199.2,0,0,1,14.83-26.52c9.74-14.93,24.74-19.09,41-21.44,27.67-4,55.49-2.87,83.29-2.88,2.89,0,3.65.56,2.81,3.69-4.66,17.51-9.07,35.08-13.51,52.65-.61,2.42-1.65,3.41-4.4,3.39C196.94,69.88,178,70,153.82,70Z"/><path class="cls-5" d="M287.76,69.84c-7.48,0-15-.11-22.43,0-2.94.06-4.22-.14-3.24-3.77q6.41-23.54,12.21-47.23c.74-3,1.65-3.44,4.63-2.82,9.56,2,17.06,6.93,23.19,14.39,7.78,9.46,13.41,20.15,18.43,31.22,1.62,3.59,1.15,5.48-3.42,5.67-9.79.41-19.57,1.21-29.36,1.85Z"/><path d="M335.59,121c-1.1-4.75,1.74-8.24,6.24-10.52,12.65-6.41,22.37-15.22,26-29.59.83-3.28,6.57-5.44,10.06-4.73,2,.42,1.66,1.78,1.62,3-.51,13.22-2.65,26-9,37.9a16,16,0,0,1-12.4,8.9c-4.76.71-9.48,1.66-14.19,2.6C335.74,130.28,335.47,130.09,335.59,121Z"/><path d="M171.93,118.17c23.11-1,45.46-1,68.41,0-3.76,4.13-7.28,6.63-12.91,6.46-13.94-.43-27.9-.49-41.83,0C179.83,124.79,175.9,122.69,171.93,118.17Z"/><path d="M249.33,70c-2.65.48-3.53-.32-2.78-3.18,4.47-17,8.88-34,13.11-51.12.87-3.51,3.06-2.71,5.27-2.47,3.41.38,1.65,2.8,1.31,4.16-4.13,16.41-8.47,32.78-12.6,49.19C253,69.09,252.13,70.58,249.33,70Z"/><path d="M227.21,70.08c-4,.16-2.52-2.15-2.06-4q5.47-21.23,10.94-42.47c.87-3.38,1.87-6.73,2.51-10.16.53-2.87,2.33-2.88,4.42-2.41,2.7.61.91,2.37.63,3.49q-6.57,26.1-13.32,52.16C229.91,68.39,229.78,70.62,227.21,70.08Z"/><path d="M106.22,27.52c-2.16,4-4.93,4.88-8.59,4.63a142.42,142.42,0,0,0-22.34.21c-1.79.16-3.47.33-3.66-2s1.23-3,3.39-3.2A209.18,209.18,0,0,1,106.22,27.52Z"/><path d="M305.36,27.68A187.33,187.33,0,0,1,338,27.2a2.49,2.49,0,0,1,2.58,2.93c-.07,1.95-1.17,2.47-3,2.29a160.29,160.29,0,0,0-24.79-.23C309.4,32.37,308.12,30.09,305.36,27.68Z"/><path class="cls-2" d="M118.28,104.73c4.67-5.26,4.15-10-.41-15.07,5.26,4.52,10,4.45,15.11-.36-4.42,5.31-4.6,10.08.41,15.14C128.14,100.39,123.34,99.47,118.28,104.73Z"/><path class="cls-2" d="M383.36,134.25c-.13-3.05-1.33-4.91-5.68-5.58,4.1-.69,6.77-1.32,7.43-4.93-.22,3.46,1.24,5.31,4.34,6.33C386.62,130.41,384.3,131,383.36,134.25Z"/><path class="cls-2" d="M292,137.14c-2.22,2.3-2.92,4.3-1.55,6.89a7.34,7.34,0,0,0-6-.83C283.68,137.86,287.72,138.15,292,137.14Z"/><text class="cls-6" transform="translate(437.92 90.01)">LOS</text><path class="cls-7" d="M464,185.15q-15.78,0-21.84-6.84-4.2-4.84-4.19-13.56a46.27,46.27,0,0,1,.77-8.06l4.52-25.37q5-27.91,35.85-27.91,12.79,0,19.42,5.46t6.62,14.95a31.48,31.48,0,0,1-1.27,8.77,30.89,30.89,0,0,1-2.48,6.45l-1.22,2.21H480.61q3.64-4.2,3.64-11.92a9.38,9.38,0,0,0-2.1-6.45q-2.08-2.37-6.17-2.37-11.14,0-13.24,12.35l-3.86,22.29a29.55,29.55,0,0,0-.55,5.62q0,7.29,8.71,7.28,10.48,0,12.58-11.8h19.85l-.55,3.2Q494.51,185.16,464,185.15Z"/><path class="cls-8" d="M557.72,183.61H507.41l14-79.43h19.86L530.36,166.4H560.8Z"/><path class="cls-9" d="M600.41,104.18l-13.9,79.43h-20l14-79.43Z"/><path class="cls-10" d="M677.29,104.18l-13.9,79.43h-20l-13.9-43.46L622,183.61h-20l14-79.43h20.52l13.68,40.6,7.17-40.6Z"/><path class="cls-11" d="M734.32,183.61H679l14-79.43h55.37l-3.08,17.21H709.72l-2.53,14.89h29.34l-3.09,17.21H704.1l-2.21,12.91h35.52Z"/><path class="cls-12" d="M793,104.18q12.57,0,17.87,5.52a14.76,14.76,0,0,1,4,10.59,26.21,26.21,0,0,1-.44,4.63l-1.54,8.61a27.89,27.89,0,0,1-4.58,11.58,19.49,19.49,0,0,1-7.23,6.29l10,32.21H788.82l-9.27-29.68h-6.84l-4.52,29.68H747l14-79.43Zm-7,17.21h-8.27l-2.87,19.2h7.72q5.85,0,8.38-2.82a10.63,10.63,0,0,0,2.54-7.44Q793.56,121.39,786.06,121.39Z"/><path class="cls-13" d="M840.44,161q0,7.62,11,7.62t11-6.84c0-2.43-1.26-4.42-3.75-6a37.07,37.07,0,0,0-9.1-3.86q-5.35-1.55-10.71-3.59a22.4,22.4,0,0,1-9.1-6.39A16.09,16.09,0,0,1,826,131.1q0-27.69,35.63-27.69,13,0,19.7,4.91A16,16,0,0,1,888,121.94a22.46,22.46,0,0,1-.83,6.13,13.75,13.75,0,0,1-1.71,4.13l-.88,1.33H865a8.89,8.89,0,0,0,2.43-6.4q0-7.17-9.38-7.17-11.8,0-11.8,7.5,0,3.75,3.75,6a32.67,32.67,0,0,0,9.1,3.47q5.36,1.28,10.76,3.14a21,21,0,0,1,9.15,6.24q3.75,4.35,3.75,11.3,0,14-8.38,20.8t-25.81,6.78q-17.43,0-23.83-6.17-4.74-4.64-4.74-12.8a37.93,37.93,0,0,1,.66-6.73l.33-1.76h19.86l-.22,1.32A10,10,0,0,0,840.44,161Z"/></g></g></svg>