<svg xmlns="http://www.w3.org/2000/svg" xmlns:xlink="http://www.w3.org/1999/xlink" viewBox="0 0 1067.89 421.42"><defs><style>.cls-1{fill:url(#Degradado_sin_nombre_5);}.cls-2{fill:url(#Degradado_sin_nombre_5-2);}.cls-3{fill:#3b79bd;}.cls-4{fill:#48c1f0;}.cls-5{fill:url(#Degradado_sin_nombre_5-3);}.cls-6{fill:#fefefe;}.cls-7{fill:#747373;}</style><linearGradient id="Degradado_sin_nombre_5" x1="430.66" y1="247.9" x2="1067.89" y2="247.9" gradientUnits="userSpaceOnUse"><stop offset="0" stop-color="#38bff0"/><stop offset="1" stop-color="#3b79bd"/></linearGradient><linearGradient id="Degradado_sin_nombre_5-2" x1="0" y1="325.25" x2="307.57" y2="325.25" xlink:href="#Degradado_sin_nombre_5"/><linearGradient id="Degradado_sin_nombre_5-3" x1="285.55" y1="178.18" x2="295.37" y2="178.18" xlink:href="#Degradado_sin_nombre_5"/></defs><g id="Capa_2" data-name="Capa 2"><g id="Capa_1-2" data-name="Capa 1"><path class="cls-1" d="M860.16,233.91c34.26-7.67,65.2-2.37,90.85,23.31,3.41,3.41,6.82,2.39,11,1.74,51.26-7.85,83.1,10.08,102.62,57.25.59,1.41,2.14,2.43,3.23,3.63v41.72c-5.91,10.42-10.78,21.63-18,31.08-13.47,17.72-30.48,29.5-54.55,27.91-14.91-1-29.93-.18-49-.18,18.12-13.18,30.1-26.72,27.83-47.46-.38-3.45-.4-7-1.24-10.31-2.94-11.71-12.09-19.22-19.44-27.93,11.94-8.84,7.28-21.62,5.59-32-6.15-37.9-44.25-63.36-82.27-56.52-17.15,3.09-17.15,3.09-37.44-11.7,13.35-16.35,19-35,17.27-56.25-3-37.75-39.84-68.13-77.44-63.32-9,1.15-12,3.86-8.31,13.52,3.46,9,4.4,19,6.2,28.64,1,5.11,2.24,11.41-5.27,12.17s-9.13-4.81-9.38-11.43c-1.32-33.58-19.05-55.13-50.46-64.94-22.77-7.11-44.09-2.53-66.42,13.59,29.76,2.85,48.53,15.1,54.56,42.46,1,4.32,1.59,8.49-3.38,10.11-3.58,1.16-4.25-2.67-5.7-5.07-23.27-38.67-42.16-43.44-80.64-20.48l-2-1.63c.63-1.6,1-3.43,1.94-4.77,15.31-21,13.79-25.31-12-33.91-29.71-9.92-61.36-.07-80.5,25.07-1.75,2.3-3.31,4.74-5.08,7-3,3.89-7.38,4-11,2.14-6-3-.73-6.8.22-10.15,1.62-5.78,11.66-8.95,7.38-15.84-4.53-7.31-13.64-7.42-21.85-8.19-19.46-1.83-33.4,6.72-44,22.18-2.71,3.94-4.27,11.94-10.6,7.85-4.67-3-.88-9.47,1.26-14.2,12.74-28.08,46-37.84,73.23-20.47,8.54,5.44,14,5.62,22.94.28,32.32-19.21,64.93-18.51,95.86,3.69,5.81,4.17,9,4,14.89.41,41.22-25.06,73.32-23.15,109.82,6.29,4.93,4,9.33,6.1,15.62,4.64,35-8.13,64.25,1.9,86.32,29.86,23.09,29.24,24.95,61,7.41,93.87a25.28,25.28,0,0,0-1.47,5,16,16,0,0,0-2,1.92C858.19,236.42,859.22,235.27,860.16,233.91Zm117.7,176.65c31.14,1.31,53.24-10,67.12-34.74,14.92-26.62,13.17-53.45-5.28-77.9-17.24-22.86-41.47-29.71-69.18-26.81-7.41.78-6.45,4.23-4.16,9.33,8,17.93,10.44,36.39,4.68,55.58a12.8,12.8,0,0,0,2.62,12.87C989.45,367.27,989.69,387.38,977.86,410.56Z"/><path class="cls-2" d="M111.21,323.22c9.92,9,27.25,6.55,35.11,25.31-16.82-7.86-32.14-12.82-47.28-6.45C83,348.82,75.49,363,71.68,380.49c-5-23.87-2.32-29.94,21.75-50.41-15.11-12.37-31.34-13.43-48.26-6.26C29.25,330.57,16.54,350.93,18,366.91c.67,7.62,5.08,14.67-3.65,21.58-2.77,2.18-.1,11-.27,16.76-.13,4.79,6.82,9.93.62,14.05-6.42,4.25-10-3-14.65-5.6V378.94a32.9,32.9,0,0,0,10.53-22.51c2.13-31.26,23.58-50.93,54.7-49.89,19.85.67,34.36-15.63,53.9-16,3.18-.07,2.18-5.92,2.74-9.24,6.9-41.11,45.09-58.36,80.51-35.89,7,4.47,11.4,4.23,18.28-.18,27.74-17.75,56.65-21.09,86.91-4.54-15,7.08-15.08,7.42-28.7,4.24-22.88-5.34-41.33,7.42-61.15,14.45-6.85,2.43-9.93,6.07-17.38-3.5-9.26-11.9-26.88-11.59-41.83-4.77-13.84,6.33-23.85,16.19-26.55,31.83-1.81,10.52,7.07,7.49,12.25,9.85,6.44,2.93,18.83,0,18.63,8.63-.27,11.76-12.41,7.09-19.63,7.35-9.18.34-16.24,5.7-24.47,8.08-.79-.71-1.6-1.4-2.41-2.09,1.59-3.74,9.24-9.61-2.8-8.73-8,.59-15.21,3.82-21.64,8.76,9.44,11.72,9.44,11.72,19.53,8.66Z"/><path class="cls-3" d="M904.41,0C914.1,7.55,925.54,12.9,931,25.29c7.92,17.86,5.5,32.59-9.29,47.82-2.56-7.53,3.54-12.84,5.13-19.33,4.35-17.8-3.93-33.11-22.49-39.84-1-3.57-3.83-3.65-6.69-3.22-.58.08-1,1.3-1.48,2l8.22,1.16c-16.43,5.09-34,7.45-41.22,27.66-2.47,6.88-2.38-6.54-7.28-3.56-2.89,15.38,1.28,28.43,14.61,37.36,13.76,9.2,28,8.73,41.92-.24,2.84-1.83,5.7-4.06,9.44-2.15C910.7,90.3,893.34,89.66,877,85.77c-17.14-4.06-27.08-17.72-30.57-34.62s3.49-30.62,16.21-41.51c4.28-3.66,9.3-6.45,14-9.64Z"/><path d="M244.76,338.68c-16.58,15.94-18.87,21.66-17.26,48.36,2.41-21.09,8.74-35.48,23.78-44.27,10.27-6,12.25-1.37,9.46,8.22-15.89,8-21.9,19.95-15.29,32.84,4.94,9.66,13.94,19,24.42,16.72,19.71-4.23,25.54-19,19-41.21-2.74,5.91-5,11.17-7.57,16.23-3.22,6.25-8.49,10.88-15.16,6.7-5.36-3.36-12.05-8-8.41-16.79,1.76-4.26,3.61-8.48,5.43-12.72,8.25-20.42,22-38.54,25.39-61,4.3-.59,5.78-3,5.09-7.26-4.44,1.06-5.08,4.06-4.78,7.62-4,4.72-7.59,7.93-15.34,7.87-62.85-.49-97.2,55.17-69.37,111.39,1.23,2.48,2.12,5.13,3.65,8.88-4.07,0-6.88.16-9.67,0-12.23-.85-27.51,4.51-35-8.24-11.76-19.91-15-44.56-4.55-63.71,7.09-13,13.64-28.77,26.15-39.19l-.28.32c13.3-9.78,23.47-23.37,38.25-31.35l-.36.32c13.33-.46,24.62-9.33,38.11-10h-19c12.84-8.85,29.5-12.37,40.41-5.58,17.6,10.94,26.68-4.1,31.35-10.4,12.88-17.41,23.77-37.48,20.71-61.19l2.66-3.12-2.1-.76-.22,4.12c-4.69-1-8.83-1.67-10.83,4.68-5,15.79-5.2,15.73-22.36,18,0-22.57,0-45.14,0-68,5.85-1.17,11.58,2.33,14.79,6.19,11.66,14.06,22.87,4.18,33.92.21,4.17-1.5,7.77-6.12,5.06-11.36-4.47-8.66.16-15.62,7-15.13,8,.56,17.36,4.09,22,12.9l-2.3,30.26c-3.41,5.71.26,7.65,4.79,7.27s10-1.18,12.84-4C422.57,149,452.11,153,480.91,153.32c7.23.09,14.65,2.16,25.23-2.72-30.57-8.08-58.44-5.92-89.9-4.29,15.87-10.06,30-10.71,44.21-10.31,32.7.92,64.5,6.58,93.86,21.54,14.84,7.55,28.48,17.12,21.26,37.75a4.76,4.76,0,0,0-.08,3.42c11.51,20.53-4.81,23.36-17.9,28.24-4.41,3-11.3.53-15.7,7.1,8,3.4,13.55-1.89,19.61-2.91,17.31-5,33.2-15.23,52.6-13.37-8-4.4-17.61-1.83-24.32-8.54-3.91-3.91-6.7-8.06-5.25-13.81,1.56-6.19,7-5.78,11.28-5.32,39.7,4.25,76.69-4.26,112.82-20.68,18.39-8.36,25.72-2.68,24.25,15.46,25.89-8.19,48.87-5.07,68.76,18.29-24.85,8.92-49.11,12.5-73,17.1-5.09,1-16.75-13.75-17-19.94,1.94-1.54,3.89-3.06,5.83-4.59-3.26-1.68-6.22-1.77-8.55,1.58-16.93,7.19-34.56,11.42-53.18,11.68,1.32,5.66,3.93,7.11,9,5.38,8.88-3,18.11-2.34,27.38-2.17,12.36.23,21.11,5.56,24.91,16.87,4.74,14.07,10.32,16.36,25.83,11.31,87.76-28.6,161.17,47,155.72,111.47-1.67,19.79-2.81,38.75-11.19,56.94-3.89,8.44-9.18,12.11-18.78,11.52-13.27-.82-26.63-.21-42.76-.21,11.87-13.56,22.74-25.41,28.22-41.41,18.51-54.09-28.58-111.65-85.15-103.16-5.3.8-11.14,5.46-15.17-2.25-1.3-2.42-2.59-4.86-3.88-7.29-3.16-10.6-6.56-20.84-24.84-12.56,16.59-.7,14.44,9.81,16.11,17.85l-7,3.38c-.29.41-.58.83-.88,1.24l.75-1.38H741c0,1.19,0,2.38,0,3.56l-.53,1,.39-1.14,6.9-3.21,3.59,0c2.05,10.83,8.77,19.56,13.29,29.27,1,2.09,1,2.91,5.16,1.55,20.54-6.76,44,4.74,54.77,24.94a50.59,50.59,0,0,1-10.83,61.7c-17.81,16.16-44.83,18.17-64,4.34-6.47-4.65-12.59-13.46-20-3-5.05,7.05-7-9.63-12.16,0-8.42,15.64,11,15.47,13,27.23-19.59-3.63-39.45,6-58.08-6.2-2.41-1.57-6.78-.77-10.1-.22-72.56,12-145.44,6-218.15,3-31.55-1.28-56.5-34.11-58.21-71.5-.82-17.66.2-34.46,15.32-47.52,6.13-5.28,7.69-13.12,2.55-21.73-5.28-8.86-9-18.71-12.75-28.39-6.85-17.8-22.31-21.1-38.38-24.06-7.41-1.36-8.63,4.11-11,8.49-4.89,9.06-6.63,19.83-14.86,27.1-1.38,1.22-4.07,2.57-.58,4.72,16.71,10.28,2.14,12-4,15.7,28,5.5,40.07,27.69,50.59,50.62,12.38,27,12.11,54.85,2.18,82.71-2.12,5.95-6.63,7.08-12.38,6.92-10.93-.3-21.87-.09-34.89-.09,10.64-19.24,16.81-37.84,13.5-58.92-3.26-20.78-15.87-35.29-30.21-49.6a40.46,40.46,0,0,0-3.4,5.7c-4.56,11-11.4,19.43,1.4,32.92,16.07,16.94,8.38,46.52-10.84,61.49-18.19,14.18-49.25,12-65.21-4.54-17.06-17.69-18.4-44.29-2.8-63.15,3.24-3.93,7.74-6.82,11.66-10.19C242.78,335.55,243.77,337.11,244.76,338.68Zm99.31-144.22c8.38.19,8.73-6.61,9.68-12.06.26-1.46-3.26-4.27-6.19-1.43.12-.87.25-1.73.37-2.59l-2.27.35,2.27,2c1.16,5.24-5.78,8.46-3.49,14-6.36,4.52-3.4,9.63-.37,14.72ZM483.16,320.24c.71,2.47,2.84,3.91,4.5,2.16,1.91-2-1.39-3-2.36-4.52-9.11-8.05-19.16-10.66-30.71-5C464.2,315.17,474.4,315,483.16,320.24Zm35-52.45c-11.86,1.32-21.26-6.89-32.31-8.32-4.58-.6-12.2-6.06-12.9,4.85l.13-.17c-9.32,2-17.88-5.31-28.45-1.46l84.48,29.36c-10.55-21.73,9.38-23.31,17.17-29,9.61-7,14.87,10.35,24.78,13.58,13.53,4.42,1.2,14.7,2.85,23.91,2.58-9.74,16.81.4,16.42-11.45-.46-14.21-22.06-38.3-36.38-37.79-21.46.75-40.7-8.75-61.24-10-22.14-1.32-44.76-7.45-66.66,1.93-8.09,3.47-18.74,8-17.09,17.21,2.58,14.34,5.52,31.3,18,39.83,12.16,8.32,27.44,5.15,40.6-2.69,2.62-1.56,5.47-2.73,8.46-4.21l-54.68-20.3c22.94-2.35,41.55,12.32,64.23,11l-58.54-20.87c12-23.17,15.22-24.64,38.28-15.58,6.46,2.54,12.6,2.08,18.7,1,16.82-3,29,1.55,34.47,18.82Zm186.41-35.58c-5.83-7.84-10-22.1-20.56-5.31-1.09,1.72-5.38,1.77-8.22,2-23.63,1.64-47.24,3.82-70.9,4.4-13.52.33-24.86,4.26-37.23,12.64,13.92,5.1,19.8,15.19,23.69,26.15,6.47,18.26,17.94,25.71,37.78,23.75,10.16-1,17-3.26,22.75-11.81,8.72-12.9,19.18-24.62,27.92-37.51C686.08,237.28,693,230.79,704.61,232.21Zm1,138.6c-14.91-6.3-26.65,5.64-38.75,4.39s-20.42,2-29.28,8.51c-20.09,14.71-41.52,23.21-67.63,19.5-21.12-3-43-.68-64.09-3.76-19.09-2.78-41,5.51-56.9-12.51-2.35-2.67-5.72-1.48-7.38,1.16-4.45,7-12.33,3.71-18.81,6.37,6.75,6.28,14.83,7.78,22.76,8.12,45.72,2,91.1,9,137.12,7.58,24.81-.76,46.31-7.84,66.22-21.63,4.42-3.05,8.23-7.68,15.16-5.4-2.22,3.85-4.13,7.19-7.19,12.51C674.67,386.65,691.63,382.36,705.66,370.81Zm-81.32-30.29c27.54,4.24,31.71,1.85,38.88-21.34,6.82-22,18.61-40.84,36.59-55.35,4.31-3.48,5.45-7.94,7.92-12.14,4-6.74,1-9.68-3.72-12.21-9-4.78-3,5.5-6.63,7.14-2.83,1.27-4.53,5-6.69,7.76C668.46,282.3,644.79,309.12,624.34,340.52Zm118.14-11.78c-9.67-11.41-13.12-25.21-18.91-37.85-1.57-3.45-5,.54-4.84,1.43,2.18,17.34-15.52,26.63-17,42.88-.7,7.59.07,11.55,6.6,15.31,4.3,2.47,8.76,5,12.77,2.4C730.55,346.84,727.05,329.31,742.48,328.74Zm14.38,39.46c8.56,11.54,18.9,15.8,31.87,10.38,11.9-5,18.28-14.53,16.71-27.38-1.67-13.67-11.63-20.78-24.06-24.25-3.68-1-12.92-.95-6.9,5.3,8.9,9.24-4.59,9.47-3.72,13,5.15,6,18.78,1.85,15.47,13.22C782,373,766.83,360.79,756.86,368.2ZM517.13,318.09c21.44-14.72,41.63-13,64,6.4C555.12,279.7,543.9,283.35,517.13,318.09ZM401.65,353c5.82-4.56,20.66-1.41,18.14-7.89-3.82-9.83-2.17-20.26-6.77-29.3-1.22-2.38-3.26-5.5-5.44-6-4.3-.95-5.43,3.66-6.44,6.52C397,328,396.7,339.87,401.65,353Zm319.1-174.57c-29.73,14.72-61.64,19.4-94.09,21.81C659.8,200.5,693.47,203.22,720.75,178.43ZM513.9,222.69c-35.13-7-70,4.08-105.13.67C443.88,228.44,478.89,225.17,513.9,222.69Zm-117.14-3.32c-19.73-4.14-24.17-17.1-22.2-35.17-3.72,10.64-12.87,20.94-7.45,30.15C372.77,224,385.81,219.12,396.76,219.37Zm411.53,28c-26.34-8.57-45.15-7.62-59.47,3.1C770.16,243.79,789.3,247.31,808.29,247.38Z"/><path class="cls-4" d="M187.38,191.7c-10.47-14.63-9.72-30.61,2-41.39,10.65-9.84,28.16-10.71,39.85-2,12.68,9.48,15,25.1,5.11,42.77-1.24-10.1,4.53-18.2,0-26.93-5.26-10-13-12.09-22.8-11.47C194.71,153.77,186.17,168,189,190Z"/><path class="cls-4" d="M1003.83,216.73c-8.91-14.14-8-29.09,3.14-38.57,11.46-9.79,24.38-11,36.46-1.85,11.06,8.37,17.72,19.19,8.36,37.53-1.81-11.6.12-20.31-5.38-27.34-6.18-7.89-14.69-6.05-22.36-5.5-14.79,1.05-20,11.39-18.25,34.08C1005.15,215.65,1004.5,216.2,1003.83,216.73Z"/><path class="cls-5" d="M295.36,211.94c-5.55,1-9.09-2-9.19-4.92-.67-19.05-.64-38.14-.61-57.21,0-3.28,3-5.14,5.78-5.52,4.36-.58,4,3.27,4,5.86C295.41,170.83,295.36,191.51,295.36,211.94Z"/><path d="M222.62,278.08,207.72,282c5.12-9.59,13.37-10.42,20.3-13.39l2.38,3.54-8.13,6.27Z"/><path d="M184.65,309.11c-4.59.21-5.46,5.3-9.69,7.91-2.8-8.89,3.78-12.37,7.62-17l2.86,3.59q-.54,2.94-1.07,5.87Z"/><path d="M241.8,334c4.5-3.08,8.79-7.36,16.34-1.68l-13.38,6.38C243.77,337.11,242.78,335.55,241.8,334Z"/><path class="cls-4" d="M1019.34,225.79H1034c-5.16,4-10.26,5.58-15.1.54Z"/><path class="cls-4" d="M1011.38,223.45c-4.15-.42-6.18-3.2-7.54-6.73.66-.52,1.31-1.07,2-1.64l6.75,7.09Z"/><path d="M185,297.32c2.42-2.74,5-7.76,8.79-4.14,2.12,2-2.46,4.94-5.06,6.66Z"/><path class="cls-4" d="M610.41,133.43c-1.08,1.53-1.48,5.14-3.94,3.42-2.09-1.45-.17-3.83,1.89-5Z"/><path class="cls-4" d="M1018.88,226.33c-3,.23-5.63-.28-7.49-2.89l1.16-1.27c2.7.38,5.47.63,6.79,3.62Z"/><path d="M228,268.58c2.91-1,6.91-3.72,8.37.17,1,2.76-3.54,2.8-6,3.37Z"/><path class="cls-4" d="M198.63,197.73l5.15,2.39c-2.5,2.79-4.49,1-6.46-.76C197.74,198.8,198.18,198.26,198.63,197.73Z"/><path class="cls-4" d="M192.49,193.58l6.14,4.16c-.45.52-.89,1.06-1.31,1.62q-3.25-2.1-6.48-4.23C191.39,194.6,191.94,194.09,192.49,193.58Z"/><path class="cls-4" d="M115,320l-3.75,3.23.21.19q1.38-2.07,2.77-4.12Z"/><path class="cls-4" d="M118.74,316.81,115,320l-.76-.69c.72-1.52,1.42-3.05,2.13-4.58C117.14,315.41,118,316.1,118.74,316.81Z"/><path d="M182.58,300l2.4-2.64,3.73,2.51-3.27,3.72Z"/><path class="cls-4" d="M189,190c1.15,1.21,2.3,2.41,3.47,3.61-.54.5-1.09,1-1.64,1.54l-3.46-3.43Z"/><path class="cls-6" d="M704.61,232.21c-11.6-1.42-18.53,5.07-24.77,14.28-8.74,12.89-19.2,24.61-27.92,37.51-5.79,8.55-12.59,10.8-22.75,11.81-19.84,2-31.31-5.49-37.78-23.75-3.89-11-9.77-21.05-23.69-26.15,12.37-8.38,23.71-12.31,37.23-12.64,23.66-.58,47.27-2.76,70.9-4.4,2.84-.2,7.13-.25,8.22-2C694.64,210.11,698.78,224.37,704.61,232.21Z"/><path class="cls-6" d="M473,264.32c.7-10.91,8.32-5.45,12.9-4.85,11.05,1.43,20.45,9.64,32.31,8.32l1.54,2.51c.33-.46.89-.9,1-1.39.19-1.68-.61-2.18-2.16-1.49-5.48-17.27-17.65-21.87-34.47-18.82-6.1,1.11-12.24,1.57-18.7-1-23.06-9.06-26.26-7.59-38.28,15.58l58.54,20.87c-22.68,1.33-41.29-13.34-64.23-11l54.68,20.3c-3,1.48-5.84,2.65-8.46,4.21-13.16,7.84-28.44,11-40.6,2.69-12.49-8.53-15.43-25.49-18-39.83-1.65-9.19,9-13.74,17.09-17.21,21.9-9.38,44.52-3.25,66.66-1.93,20.54,1.22,39.78,10.72,61.24,10,14.32-.51,35.92,23.58,36.38,37.79.39,11.85-13.84,1.71-16.42,11.45-1.65-9.21,10.68-19.49-2.85-23.91-9.91-3.23-15.17-20.62-24.78-13.58-7.79,5.7-27.72,7.28-17.17,29l-84.48-29.36c10.57-3.85,19.13,3.49,28.45,1.46,14.05,11,31.11,13.17,47.87,16.21C505.88,272.36,491.05,263.53,473,264.32Z"/><path class="cls-6" d="M705.66,370.81c-14,11.55-31,15.84-48.77,24.84,3.06-5.32,5-8.66,7.19-12.51-6.93-2.28-10.74,2.35-15.16,5.4-19.91,13.79-41.41,20.87-66.22,21.63-46,1.41-91.4-5.6-137.12-7.58-7.93-.34-16-1.84-22.76-8.12,6.48-2.66,14.36.68,18.81-6.37,1.66-2.64,5-3.83,7.38-1.16,15.88,18,37.81,9.73,56.9,12.51,21.09,3.08,43,.76,64.09,3.76,26.11,3.71,47.54-4.79,67.63-19.5,8.86-6.49,17.19-9.77,29.28-8.51S690.75,364.51,705.66,370.81Z"/><path class="cls-6" d="M624.34,340.52c20.45-31.4,44.12-58.22,66.35-86.14,2.16-2.71,3.86-6.49,6.69-7.76,3.62-1.64-2.33-11.92,6.63-7.14,4.74,2.53,7.68,5.47,3.72,12.21-2.47,4.2-3.61,8.66-7.92,12.14-18,14.51-29.77,33.32-36.59,55.35C656.05,342.37,651.88,344.76,624.34,340.52Z"/><path class="cls-6" d="M742.48,328.74c-15.43.57-11.93,18.1-21.41,24.17-4,2.58-8.47.07-12.77-2.4-6.53-3.76-7.3-7.72-6.6-15.31,1.51-16.25,19.21-25.54,17-42.88-.11-.89,3.27-4.88,4.84-1.43C729.36,303.53,732.81,317.33,742.48,328.74Z"/><path class="cls-6" d="M756.86,368.2c10-7.41,25.12,4.84,29.37-9.75,3.31-11.37-10.32-7.26-15.47-13.22-.87-3.51,12.62-3.74,3.72-13-6-6.25,3.22-6.33,6.9-5.3,12.43,3.47,22.39,10.58,24.06,24.25,1.57,12.85-4.81,22.41-16.71,27.38C775.76,384,765.42,379.74,756.86,368.2Z"/><path class="cls-6" d="M263.13,352.76c-1.82,4.24-3.67,8.46-5.43,12.72-3.64,8.74,3.05,13.43,8.41,16.79,6.67,4.18,11.94-.45,15.16-6.7,2.6-5.06,4.83-10.32,7.57-16.23,6.57,22.2.74,37-19,41.21-10.48,2.25-19.48-7.06-24.42-16.72-6.61-12.89-.6-24.81,15.29-32.84C261.54,351.57,262.34,352.16,263.13,352.76Z"/><path class="cls-6" d="M517.13,318.09c26.77-34.74,38-38.39,64,6.4C558.76,305.1,538.57,303.37,517.13,318.09Z"/><path class="cls-6" d="M401.65,353c-4.95-13.13-4.63-25-.51-36.65,1-2.86,2.14-7.47,6.44-6.52,2.18.48,4.22,3.6,5.44,6,4.6,9,3,19.47,6.77,29.3C422.31,351.59,407.47,348.44,401.65,353Z"/><path class="cls-6" d="M720.75,178.43c-27.28,24.79-61,22.07-94.09,21.81C659.11,197.83,691,193.15,720.75,178.43Z"/><path class="cls-6" d="M513.9,222.69c-35,2.48-70,5.75-105.13.67C443.86,226.77,478.77,215.72,513.9,222.69Z"/><path class="cls-6" d="M396.76,219.37c-10.95-.25-24,4.59-29.65-5-5.42-9.21,3.73-19.51,7.45-30.15C372.59,202.27,377,215.23,396.76,219.37Z"/><path class="cls-6" d="M808.29,247.38c-19-.07-38.13-3.59-59.47,3.1C763.14,239.76,782,238.81,808.29,247.38Z"/><path class="cls-6" d="M483.16,320.24c-8.76-5.23-19-5.07-28.57-7.35,11.55-5.67,21.6-3.06,30.71,5A30,30,0,0,0,483.16,320.24Z"/><path class="cls-6" d="M741.06,271.28c-1.67-8,.48-18.54-16.11-17.84,18.28-8.28,21.68,2,24.84,12.56a10.36,10.36,0,0,0-2,1.76l-6.91,3.3Z"/><path class="cls-6" d="M347.56,181c2.93-2.84,6.45,0,6.19,1.43-.95,5.45-1.3,12.25-9.68,12.06l.37.25c-2.29-5.52,4.65-8.74,3.49-14Z"/><path class="cls-6" d="M344.07,194.46v15c-3-5.09-6-10.2.37-14.72Z"/><path d="M288.83,292.14c-.3-3.56.34-6.56,4.78-7.62.69,4.21-.79,6.67-5.09,7.26Z"/><path d="M708.84,197.32c2.33-3.35,5.29-3.26,8.55-1.58-1.94,1.53-3.89,3-5.83,4.59C710.66,199.32,709.75,198.32,708.84,197.32Z"/><path class="cls-6" d="M749.79,266c1.29,2.43,2.58,4.87,3.88,7.29l-2.38,1.41-3.59,0,.26,0-.15-7A10.36,10.36,0,0,1,749.79,266Z"/><path class="cls-4" d="M741,274.52H733.9l.13.14,7-3.38-.16-.23c0,1.22,0,2.43,0,3.65Z"/><path class="cls-6" d="M485.3,317.88c1,1.49,4.27,2.52,2.36,4.52-1.66,1.75-3.79.31-4.5-2.16A30,30,0,0,1,485.3,317.88Z"/><path class="cls-4" d="M740.94,278.08c0-1.18,0-2.37,0-3.56l-.13.19,7.1.07-.26,0-6.9,3.21Z"/><path d="M334.22,191.42l.22-4.12,2.1.76-2.66,3.12Z"/><path d="M347.93,180.73l-2.27-2,2.27-.35c-.12.86-.25,1.72-.37,2.59Z"/><path class="cls-4" d="M733.9,274.53l-.75,1.38c.3-.41.59-.83.88-1.24Z"/><path class="cls-4" d="M740.8,277.94l-.39,1.14.53-1Z"/><path class="cls-7" d="M473,264.32c18.06-.79,32.89,8,48,16-16.76-3-33.82-5.19-47.87-16.21Z"/><path class="cls-7" d="M518.53,267.42c1.55-.69,2.35-.19,2.16,1.49-.06.49-.62.93-1,1.39l-1.54-2.51Z"/><path class="cls-7" d="M748,274.78l-7.1-.07c0-1.22,0-2.43,0-3.65l6.91-3.3Z"/></g></g></svg>